<svg xmlns="http://www.w3.org/2000/svg" xmlns:xlink="http://www.w3.org/1999/xlink" width="1200" zoomAndPan="magnify" viewBox="0 0 900 470.999988" height="628" preserveAspectRatio="xMidYMid meet" version="1.0"><defs><clipPath id="2a865db519"><path d="M 376 100 L 532 100 L 532 302.429688 L 376 302.429688 Z M 376 100 " clip-rule="nonzero"/></clipPath><clipPath id="3ef254a838"><path d="M 376.34375 100.328125 L 532 100.328125 L 532 302.207031 L 376.34375 302.207031 Z M 376.34375 100.328125 " clip-rule="nonzero"/></clipPath><clipPath id="5270ea6c3c"><path d="M 434.023438 221.410156 L 435.976562 212 C 435.359375 211.507812 434.859375 210.910156 434.484375 210.214844 C 434.113281 209.519531 433.890625 208.777344 433.820312 207.988281 C 433.75 207.199219 433.839844 206.429688 434.085938 205.679688 C 434.335938 204.929688 434.71875 204.257812 435.246094 203.664062 C 435.769531 203.070312 436.386719 202.605469 437.101562 202.269531 C 437.816406 201.929688 438.570312 201.746094 439.363281 201.71875 C 440.152344 201.691406 440.914062 201.820312 441.652344 202.105469 C 442.390625 202.390625 443.042969 202.8125 443.605469 203.367188 L 462.375 188.605469 C 462.132812 188.15625 461.964844 187.679688 461.871094 187.175781 L 437.671875 186.417969 C 437.554688 188.265625 436.875 189.878906 435.632812 191.257812 C 434.390625 192.632812 432.855469 193.472656 431.027344 193.78125 L 433.226562 221.246094 C 433.492188 221.277344 433.753906 221.328125 434.011719 221.40625 M 435.746094 167.351562 C 436.113281 167.40625 436.484375 167.433594 436.855469 167.433594 C 437.71875 167.433594 438.558594 167.285156 439.371094 166.992188 C 440.183594 166.695312 440.917969 166.269531 441.582031 165.714844 C 442.246094 165.15625 442.792969 164.503906 443.226562 163.757812 C 443.65625 163.007812 443.949219 162.207031 444.101562 161.355469 L 460.714844 162.308594 C 460.847656 163.457031 461.324219 164.441406 462.136719 165.265625 C 462.953125 166.085938 463.933594 166.570312 465.082031 166.71875 L 465.726562 181.304688 C 464.714844 181.53125 463.851562 182.019531 463.144531 182.777344 C 462.433594 183.535156 461.996094 184.425781 461.835938 185.449219 L 437.59375 184.691406 C 437.375 183.300781 436.824219 182.054688 435.949219 180.957031 C 435.070312 179.859375 433.976562 179.046875 432.671875 178.527344 Z M 430.011719 162.792969 C 430.785156 164.726562 432.132812 166.09375 434.058594 166.886719 C 432.871094 171.109375 432.023438 173.988281 430.796875 178.03125 C 430.441406 177.984375 432.054688 178.410156 429.714844 177.960938 C 424.113281 176.863281 417.121094 187.230469 425.984375 192.964844 C 425.019531 195.765625 423.675781 199.800781 422.601562 202.703125 C 422.292969 202.605469 421.976562 202.558594 421.652344 202.558594 L 421.558594 202.558594 C 418.234375 192.382812 414.945312 182.527344 411.441406 172.484375 C 412.359375 171.992188 413.085938 171.300781 413.621094 170.40625 C 414.15625 169.511719 414.421875 168.542969 414.421875 167.5 C 414.421875 167.3125 414.410156 167.105469 414.390625 166.914062 Z M 418.222656 144.28125 C 418.429688 144.75 418.71875 145.15625 419.09375 145.503906 C 419.464844 145.851562 419.894531 146.113281 420.378906 146.28125 C 420.859375 146.449219 421.355469 146.515625 421.867188 146.476562 C 422.375 146.4375 422.859375 146.300781 423.308594 146.0625 L 431.371094 155.175781 C 429.855469 156.875 429.253906 158.847656 429.574219 161.101562 L 413.957031 165.230469 C 413.421875 164.003906 412.554688 163.082031 411.367188 162.46875 C 410.175781 161.851562 408.921875 161.683594 407.613281 161.957031 C 406.300781 162.230469 405.222656 162.886719 404.375 163.929688 C 403.53125 164.96875 403.109375 166.160156 403.109375 167.5 C 403.109375 167.695312 403.121094 167.890625 403.144531 168.085938 L 392.910156 170.792969 C 392.761719 170.511719 392.582031 170.25 392.367188 170.011719 L 407.300781 148.960938 C 407.53125 149.023438 407.765625 149.054688 408.007812 149.054688 C 408.660156 149.054688 409.234375 148.839844 409.722656 148.40625 C 410.214844 147.96875 410.5 147.425781 410.578125 146.777344 Z M 435.222656 130.804688 C 434.613281 130.804688 434.042969 130.949219 433.507812 131.230469 C 432.972656 131.511719 432.53125 131.90625 432.1875 132.40625 C 431.847656 132.902344 431.640625 133.453125 431.570312 134.058594 C 431.5 134.660156 431.570312 135.242188 431.789062 135.808594 C 432.007812 136.375 432.34375 136.855469 432.800781 137.253906 C 433.257812 137.65625 433.78125 137.925781 434.367188 138.066406 C 434.957031 138.207031 435.546875 138.203125 436.132812 138.050781 C 436.722656 137.902344 437.238281 137.625 437.691406 137.21875 L 449.65625 145.363281 C 449.058594 146.71875 449.089844 148.0625 449.738281 149.390625 L 442.203125 155.023438 C 441.597656 154.386719 440.902344 153.875 440.113281 153.488281 C 439.328125 153.101562 438.496094 152.863281 437.625 152.773438 C 436.753906 152.683594 435.890625 152.746094 435.042969 152.964844 C 434.191406 153.183594 433.40625 153.542969 432.683594 154.039062 L 424.621094 144.925781 C 425.109375 144.226562 425.328125 143.457031 425.28125 142.609375 C 425.234375 141.761719 424.925781 141.015625 424.367188 140.378906 C 423.804688 139.742188 423.105469 139.347656 422.269531 139.195312 C 421.433594 139.042969 420.640625 139.164062 419.890625 139.5625 L 410.453125 128.878906 C 410.507812 128.667969 410.535156 128.449219 410.535156 128.226562 C 410.535156 127.941406 410.488281 127.660156 410.394531 127.390625 L 417.8125 124.390625 C 418.277344 125.039062 418.890625 125.488281 419.648438 125.738281 C 420.40625 125.984375 421.167969 125.988281 421.925781 125.742188 C 422.6875 125.5 423.300781 125.054688 423.773438 124.410156 C 424.242188 123.765625 424.480469 123.042969 424.480469 122.246094 C 424.480469 122.066406 424.464844 121.886719 424.441406 121.707031 L 431.65625 118.789062 C 431.921875 119.089844 432.242188 119.316406 432.609375 119.46875 C 432.980469 119.617188 433.367188 119.683594 433.765625 119.65625 C 434.164062 119.628906 434.539062 119.515625 434.886719 119.316406 C 435.234375 119.117188 435.519531 118.851562 435.742188 118.519531 L 446.457031 121.285156 C 446.457031 121.332031 446.457031 121.378906 446.457031 121.425781 C 446.457031 122.089844 446.613281 122.710938 446.921875 123.300781 C 447.230469 123.886719 447.65625 124.367188 448.203125 124.742188 C 448.75 125.117188 449.351562 125.34375 450.011719 125.421875 C 450.667969 125.496094 451.304688 125.417969 451.925781 125.179688 C 452.542969 124.941406 453.070312 124.574219 453.507812 124.074219 C 453.945312 123.578125 454.238281 123.003906 454.394531 122.359375 C 454.546875 121.714844 454.542969 121.074219 454.378906 120.429688 C 454.214844 119.789062 453.910156 119.222656 453.464844 118.730469 C 453.023438 118.238281 452.488281 117.878906 451.867188 117.648438 C 451.246094 117.421875 450.605469 117.351562 449.949219 117.4375 C 449.292969 117.527344 448.695312 117.761719 448.152344 118.144531 C 447.613281 118.527344 447.191406 119.015625 446.894531 119.605469 L 436.179688 116.839844 C 436.117188 116.148438 435.828125 115.570312 435.304688 115.113281 C 434.785156 114.65625 434.175781 114.441406 433.480469 114.472656 C 432.789062 114.503906 432.199219 114.769531 431.722656 115.273438 C 431.242188 115.777344 431.003906 116.375 431.007812 117.070312 L 431.007812 117.175781 L 423.789062 120.097656 C 423.324219 119.445312 422.710938 118.996094 421.953125 118.746094 C 421.191406 118.496094 420.433594 118.496094 419.671875 118.738281 C 418.910156 118.984375 418.296875 119.429688 417.824219 120.078125 C 417.355469 120.722656 417.121094 121.445312 417.121094 122.246094 C 417.121094 122.421875 417.132812 122.597656 417.160156 122.777344 L 409.234375 125.964844 C 408.675781 125.644531 408.082031 125.542969 407.449219 125.664062 C 406.816406 125.785156 406.300781 126.097656 405.902344 126.601562 C 405.503906 127.105469 405.316406 127.679688 405.347656 128.324219 C 405.375 128.964844 405.609375 129.523438 406.050781 129.988281 C 406.492188 130.457031 407.03125 130.722656 407.671875 130.789062 C 408.3125 130.855469 408.894531 130.703125 409.421875 130.335938 L 418.578125 140.699219 C 418.285156 141.117188 418.089844 141.570312 417.988281 142.070312 L 409.902344 144.71875 C 409.644531 144.4375 409.34375 144.222656 408.992188 144.074219 C 408.644531 143.929688 408.28125 143.863281 407.898438 143.875 C 407.519531 143.890625 407.164062 143.980469 406.824219 144.152344 C 406.484375 144.324219 406.199219 144.558594 405.960938 144.855469 L 399.886719 142.78125 C 399.886719 142.652344 399.90625 142.515625 399.90625 142.378906 C 399.90625 141.746094 399.761719 141.152344 399.472656 140.589844 C 399.179688 140.03125 398.777344 139.566406 398.265625 139.199219 C 397.75 138.835938 397.179688 138.609375 396.554688 138.523438 C 395.929688 138.433594 395.316406 138.496094 394.722656 138.703125 C 394.125 138.914062 393.613281 139.25 393.179688 139.707031 C 392.746094 140.167969 392.445312 140.703125 392.269531 141.308594 C 392.097656 141.917969 392.074219 142.527344 392.199219 143.148438 C 392.324219 143.765625 392.585938 144.320312 392.980469 144.8125 C 393.375 145.304688 393.863281 145.679688 394.441406 145.933594 C 395.019531 146.191406 395.621094 146.296875 396.25 146.257812 C 396.882812 146.222656 397.46875 146.039062 398.011719 145.714844 C 398.550781 145.390625 398.988281 144.960938 399.320312 144.425781 L 405.398438 146.503906 C 405.402344 146.652344 405.414062 146.800781 405.445312 146.949219 L 387.546875 157.421875 C 387.109375 156.953125 386.585938 156.613281 385.980469 156.40625 C 385.371094 156.195312 384.75 156.140625 384.117188 156.242188 C 383.484375 156.339844 382.910156 156.582031 382.394531 156.964844 C 381.878906 157.347656 381.484375 157.832031 381.210938 158.410156 C 380.933594 158.992188 380.808594 159.601562 380.835938 160.242188 C 380.863281 160.882812 381.039062 161.480469 381.363281 162.035156 C 381.6875 162.589844 382.121094 163.035156 382.664062 163.375 C 383.210938 163.714844 383.804688 163.90625 384.441406 163.953125 C 385.082031 163.996094 385.699219 163.890625 386.285156 163.632812 C 386.871094 163.371094 387.363281 162.992188 387.761719 162.488281 C 388.160156 161.984375 388.417969 161.417969 388.535156 160.785156 C 388.652344 160.15625 388.617188 159.535156 388.425781 158.921875 L 404.96875 149.234375 L 390.96875 169.015625 C 390.449219 168.804688 389.910156 168.707031 389.351562 168.726562 C 388.792969 168.746094 388.265625 168.878906 387.761719 169.125 C 387.261719 169.375 386.832031 169.714844 386.480469 170.148438 C 386.125 170.578125 385.875 171.066406 385.730469 171.605469 C 385.585938 172.148438 385.5625 172.691406 385.652344 173.246094 C 385.742188 173.796875 385.945312 174.304688 386.257812 174.769531 C 386.566406 175.234375 386.960938 175.613281 387.4375 175.910156 C 387.910156 176.203125 388.425781 176.386719 388.980469 176.460938 C 389.535156 176.535156 390.078125 176.488281 390.613281 176.328125 C 391.148438 176.164062 391.628906 175.898438 392.046875 175.53125 C 392.46875 175.160156 392.792969 174.722656 393.023438 174.210938 C 393.253906 173.703125 393.371094 173.167969 393.371094 172.609375 C 393.371094 172.566406 393.371094 172.523438 393.371094 172.484375 L 403.601562 169.777344 C 404.234375 171.226562 405.292969 172.230469 406.769531 172.796875 L 402.476562 192.964844 C 401.476562 192.972656 400.601562 193.308594 399.855469 193.972656 L 393.714844 189.476562 C 393.984375 188.867188 394.09375 188.230469 394.042969 187.566406 C 393.996094 186.902344 393.792969 186.285156 393.4375 185.722656 C 393.085938 185.15625 392.617188 184.707031 392.042969 184.375 C 391.464844 184.042969 390.84375 183.863281 390.175781 183.839844 C 389.511719 183.816406 388.878906 183.949219 388.277344 184.242188 C 387.675781 184.53125 387.179688 184.945312 386.785156 185.484375 C 386.394531 186.023438 386.148438 186.621094 386.050781 187.28125 C 385.957031 187.941406 386.019531 188.582031 386.242188 189.210938 C 386.46875 189.839844 386.824219 190.378906 387.316406 190.828125 C 387.808594 191.277344 388.378906 191.585938 389.023438 191.753906 C 389.667969 191.921875 390.316406 191.925781 390.964844 191.773438 C 391.613281 191.617188 392.1875 191.320312 392.6875 190.882812 L 398.824219 195.371094 C 398.40625 196.332031 398.367188 197.308594 398.703125 198.300781 L 383.398438 207.667969 C 382.933594 207.191406 382.386719 206.847656 381.753906 206.640625 C 381.121094 206.433594 380.476562 206.386719 379.820312 206.5 C 379.164062 206.613281 378.574219 206.875 378.046875 207.28125 C 377.519531 207.6875 377.117188 208.195312 376.84375 208.800781 C 376.570312 209.410156 376.453125 210.042969 376.492188 210.707031 C 376.535156 211.375 376.730469 211.988281 377.078125 212.558594 C 377.425781 213.125 377.886719 213.578125 378.457031 213.917969 C 379.03125 214.257812 379.648438 214.441406 380.316406 214.472656 C 380.980469 214.503906 381.613281 214.378906 382.21875 214.09375 C 382.820312 213.8125 383.320312 213.402344 383.71875 212.871094 C 384.121094 212.335938 384.371094 211.742188 384.472656 211.085938 C 384.578125 210.425781 384.519531 209.78125 384.304688 209.152344 L 399.613281 199.78125 C 400.40625 200.605469 401.371094 201.015625 402.511719 201.011719 C 402.980469 201.011719 403.4375 200.933594 403.882812 200.773438 L 406.84375 206.082031 C 406.351562 206.519531 405.988281 207.050781 405.761719 207.667969 C 405.53125 208.289062 405.460938 208.925781 405.546875 209.582031 C 405.632812 210.234375 405.871094 210.832031 406.253906 211.371094 C 406.636719 211.90625 407.125 212.324219 407.714844 212.621094 C 408.304688 212.914062 408.929688 213.054688 409.589844 213.039062 C 410.25 213.027344 410.867188 212.855469 411.445312 212.535156 C 412.023438 212.214844 412.488281 211.773438 412.847656 211.21875 C 413.207031 210.664062 413.414062 210.058594 413.472656 209.402344 C 413.53125 208.742188 413.429688 208.109375 413.175781 207.503906 C 412.917969 206.894531 412.53125 206.378906 412.019531 205.964844 C 411.507812 205.546875 410.929688 205.273438 410.28125 205.144531 C 409.632812 205.011719 408.996094 205.042969 408.363281 205.230469 L 405.34375 199.84375 C 405.8125 199.378906 406.144531 198.832031 406.34375 198.199219 C 406.539062 197.570312 406.582031 196.933594 406.464844 196.28125 C 406.347656 195.632812 406.089844 195.046875 405.683594 194.527344 C 405.277344 194.003906 404.777344 193.605469 404.175781 193.332031 L 408.46875 173.164062 C 408.570312 173.164062 408.675781 173.164062 408.78125 173.164062 C 409.132812 173.164062 409.480469 173.128906 409.824219 173.066406 L 413.714844 184.046875 L 419.921875 203.097656 C 418.910156 203.789062 418.464844 204.742188 418.578125 205.957031 C 418.695312 207.175781 419.3125 208.027344 420.4375 208.511719 L 416.535156 218.910156 C 415.277344 218.679688 414.105469 218.898438 413.019531 219.570312 C 411.929688 220.238281 411.207031 221.1875 410.847656 222.414062 L 403.441406 221.617188 C 403.304688 220.851562 402.929688 220.226562 402.320312 219.738281 C 401.710938 219.253906 401.015625 219.027344 400.238281 219.066406 C 399.457031 219.105469 398.789062 219.394531 398.226562 219.9375 C 397.667969 220.480469 397.355469 221.140625 397.292969 221.917969 C 397.226562 222.695312 397.429688 223.394531 397.894531 224.019531 C 398.359375 224.648438 398.972656 225.042969 399.738281 225.203125 L 401.40625 247.722656 C 400.769531 247.914062 400.210938 248.246094 399.734375 248.710938 C 399.261719 249.179688 398.921875 249.734375 398.722656 250.367188 C 398.523438 251.003906 398.484375 251.652344 398.605469 252.308594 C 398.726562 252.960938 398.992188 253.550781 399.40625 254.074219 C 399.820312 254.597656 400.332031 254.992188 400.941406 255.261719 C 401.554688 255.53125 402.191406 255.640625 402.855469 255.589844 C 403.519531 255.542969 404.136719 255.339844 404.699219 254.988281 C 405.265625 254.632812 405.714844 254.164062 406.046875 253.589844 C 406.382812 253.011719 406.558594 252.386719 406.582031 251.722656 C 406.605469 251.054688 406.472656 250.421875 406.183594 249.820312 C 405.890625 249.222656 405.476562 248.726562 404.941406 248.332031 C 404.402344 247.9375 403.800781 247.691406 403.140625 247.59375 L 401.476562 225.074219 C 402.320312 224.757812 402.914062 224.183594 403.257812 223.347656 L 410.664062 224.140625 C 410.695312 224.570312 410.777344 224.984375 410.914062 225.390625 C 411.050781 225.796875 411.238281 226.179688 411.472656 226.535156 C 411.707031 226.894531 411.984375 227.214844 412.304688 227.503906 C 412.621094 227.789062 412.972656 228.027344 413.351562 228.226562 C 413.734375 228.421875 414.132812 228.566406 414.550781 228.65625 C 414.96875 228.75 415.390625 228.789062 415.820312 228.773438 C 416.246094 228.753906 416.667969 228.683594 417.078125 228.558594 C 417.484375 228.433594 417.875 228.261719 418.238281 228.035156 C 418.601562 227.8125 418.933594 227.542969 419.226562 227.234375 C 419.523438 226.921875 419.773438 226.582031 419.980469 226.207031 C 420.1875 225.832031 420.34375 225.4375 420.449219 225.019531 C 420.554688 224.605469 420.605469 224.183594 420.601562 223.757812 C 420.597656 223.328125 420.539062 222.90625 420.425781 222.492188 C 420.3125 222.082031 420.148438 221.6875 419.9375 221.316406 C 419.722656 220.945312 419.464844 220.609375 419.164062 220.304688 C 418.863281 220 418.527344 219.738281 418.160156 219.519531 L 422.210938 208.722656 C 422.753906 208.628906 423.234375 208.40625 423.65625 208.054688 C 424.078125 207.703125 424.386719 207.273438 424.582031 206.757812 C 424.773438 206.242188 424.828125 205.714844 424.738281 205.171875 C 424.652344 204.632812 424.4375 204.144531 424.09375 203.71875 L 427.753906 193.640625 C 428.261719 193.769531 428.777344 193.847656 429.300781 193.878906 L 431.503906 221.339844 C 429.308594 221.859375 427.675781 224 427.675781 226.183594 C 427.675781 228.371094 428.847656 229.902344 430.550781 230.691406 L 419.605469 264.441406 L 419.4375 264.441406 C 418.777344 264.441406 418.15625 264.597656 417.570312 264.90625 C 416.988281 265.214844 416.507812 265.640625 416.132812 266.183594 C 415.757812 266.730469 415.535156 267.328125 415.457031 267.984375 C 415.378906 268.640625 415.457031 269.277344 415.695312 269.894531 C 415.929688 270.511719 416.296875 271.039062 416.792969 271.476562 C 417.289062 271.910156 417.859375 272.207031 418.5 272.363281 C 419.144531 272.515625 419.785156 272.515625 420.425781 272.351562 C 421.066406 272.191406 421.632812 271.890625 422.125 271.449219 C 422.617188 271.007812 422.976562 270.480469 423.210938 269.859375 C 423.441406 269.242188 423.511719 268.601562 423.429688 267.949219 C 423.34375 267.292969 423.113281 266.695312 422.734375 266.152344 C 422.355469 265.613281 421.871094 265.191406 421.285156 264.886719 L 432.230469 231.140625 C 432.367188 231.152344 431.203125 231.160156 432.644531 231.160156 C 434.089844 231.160156 437.621094 228.382812 437.621094 226.1875 C 437.621094 223.988281 436.816406 223.074219 435.582031 222.171875 L 437.480469 212.867188 C 438.605469 213.300781 439.753906 213.375 440.925781 213.089844 C 442.097656 212.804688 443.085938 212.210938 443.882812 211.308594 C 444.683594 210.402344 445.152344 209.351562 445.292969 208.15625 C 445.433594 206.957031 445.21875 205.824219 444.648438 204.761719 L 463.449219 189.976562 C 463.5 190.023438 463.554688 190.070312 463.609375 190.113281 L 455.253906 204.855469 C 454.847656 204.730469 454.429688 204.667969 454.003906 204.667969 C 453.140625 204.667969 452.355469 204.914062 451.644531 205.40625 C 450.933594 205.894531 450.425781 206.542969 450.121094 207.351562 C 449.816406 208.15625 449.765625 208.980469 449.972656 209.816406 C 450.175781 210.65625 450.601562 211.359375 451.246094 211.933594 L 444.15625 232.632812 C 443.761719 232.511719 444.273438 232.445312 442.910156 232.445312 C 441.542969 232.445312 438.75 234.304688 438.75 236.601562 C 438.75 237.152344 438.855469 237.683594 439.066406 238.191406 C 439.277344 238.703125 439.578125 239.152344 439.96875 239.542969 C 440.359375 239.929688 440.808594 240.230469 441.316406 240.441406 C 441.828125 240.652344 442.359375 240.757812 442.910156 240.757812 C 445.203125 240.757812 447.066406 238.367188 447.066406 236.601562 C 447.066406 234.835938 446.527344 234.257812 445.667969 233.492188 L 452.757812 212.792969 L 452.976562 212.851562 L 457.132812 224.710938 C 456.441406 224.863281 455.878906 225.222656 455.441406 225.78125 C 455.007812 226.339844 454.800781 226.972656 454.820312 227.683594 C 454.820312 229.246094 456.195312 230.75 457.886719 230.75 C 459.582031 230.75 460.953125 229.203125 460.953125 227.683594 C 460.953125 226.160156 460.082031 225.1875 458.867188 224.777344 L 454.710938 212.921875 C 455.695312 212.75 456.511719 212.285156 457.160156 211.523438 C 457.808594 210.761719 458.140625 209.882812 458.15625 208.882812 L 477.148438 205.085938 C 477.378906 205.523438 477.699219 205.882812 478.105469 206.167969 C 478.511719 206.449219 478.960938 206.625 479.449219 206.691406 C 479.941406 206.757812 480.417969 206.707031 480.886719 206.542969 C 481.351562 206.375 481.753906 206.113281 482.09375 205.75 C 482.433594 205.390625 482.671875 204.972656 482.808594 204.496094 C 482.941406 204.019531 482.960938 203.539062 482.863281 203.054688 C 482.769531 202.566406 482.566406 202.132812 482.257812 201.742188 C 481.949219 201.355469 481.566406 201.0625 481.117188 200.859375 C 480.664062 200.65625 480.191406 200.566406 479.695312 200.59375 C 479.203125 200.621094 478.742188 200.757812 478.3125 201.007812 C 477.886719 201.257812 477.539062 201.589844 477.273438 202.007812 C 477.007812 202.425781 476.851562 202.882812 476.808594 203.375 L 457.804688 207.175781 C 457.558594 206.609375 457.207031 206.125 456.746094 205.714844 L 465.105469 190.972656 C 465.777344 191.210938 466.46875 191.304688 467.183594 191.246094 C 467.894531 191.191406 468.566406 190.992188 469.195312 190.652344 C 469.820312 190.3125 470.351562 189.855469 470.789062 189.289062 C 471.222656 188.722656 471.523438 188.09375 471.691406 187.398438 C 471.855469 186.703125 471.875 186.003906 471.746094 185.300781 C 471.613281 184.597656 471.347656 183.953125 470.941406 183.363281 C 470.535156 182.777344 470.027344 182.296875 469.417969 181.921875 C 468.808594 181.550781 468.152344 181.316406 467.441406 181.222656 L 466.792969 166.636719 C 467.636719 166.449219 468.382812 166.070312 469.027344 165.496094 L 483.644531 177.242188 C 483.234375 177.988281 483.023438 178.78125 483.015625 179.632812 C 483.007812 180.480469 483.199219 181.28125 483.59375 182.03125 C 483.988281 182.785156 484.539062 183.398438 485.246094 183.871094 C 485.949219 184.34375 486.722656 184.625 487.570312 184.707031 C 488.414062 184.789062 489.230469 184.664062 490.011719 184.335938 C 490.792969 184.007812 491.453125 183.511719 491.984375 182.851562 C 492.519531 182.191406 492.863281 181.441406 493.019531 180.609375 C 493.171875 179.773438 493.121094 178.953125 492.863281 178.144531 C 492.601562 177.335938 492.167969 176.636719 491.554688 176.046875 C 490.941406 175.460938 490.226562 175.050781 489.40625 174.824219 C 488.589844 174.597656 487.765625 174.578125 486.9375 174.769531 C 486.109375 174.957031 485.375 175.332031 484.738281 175.890625 L 470.144531 164.144531 C 470.496094 163.507812 470.699219 162.824219 470.753906 162.097656 C 470.808594 161.375 470.714844 160.667969 470.464844 159.984375 C 470.214844 159.300781 469.832031 158.699219 469.324219 158.179688 C 468.8125 157.660156 468.21875 157.269531 467.539062 157.007812 C 466.859375 156.746094 466.15625 156.636719 465.429688 156.679688 C 464.703125 156.722656 464.015625 156.914062 463.371094 157.257812 C 462.730469 157.597656 462.183594 158.054688 461.738281 158.632812 C 461.292969 159.207031 460.988281 159.851562 460.820312 160.558594 L 444.207031 159.609375 C 444.136719 158.460938 443.8125 157.390625 443.242188 156.394531 L 450.785156 150.765625 C 451.378906 151.316406 452.070312 151.691406 452.855469 151.890625 C 453.640625 152.089844 454.429688 152.085938 455.210938 151.886719 C 455.996094 151.683594 456.6875 151.304688 457.277344 150.75 C 457.871094 150.195312 458.292969 149.535156 458.546875 148.765625 L 480.039062 151.742188 C 480.097656 152.34375 480.296875 152.894531 480.632812 153.398438 C 480.96875 153.902344 481.398438 154.296875 481.929688 154.589844 C 482.460938 154.878906 483.027344 155.027344 483.632812 155.039062 C 484.238281 155.046875 484.808594 154.917969 485.347656 154.644531 C 485.886719 154.371094 486.332031 153.992188 486.683594 153.5 C 487.035156 153.007812 487.25 152.460938 487.332031 151.863281 C 487.414062 151.261719 487.351562 150.679688 487.148438 150.109375 C 486.941406 149.542969 486.613281 149.054688 486.167969 148.648438 C 485.722656 148.242188 485.207031 147.960938 484.621094 147.808594 C 484.035156 147.65625 483.449219 147.648438 482.859375 147.785156 C 482.269531 147.921875 481.75 148.1875 481.289062 148.582031 C 480.832031 148.976562 480.492188 149.457031 480.273438 150.019531 L 458.785156 147.058594 C 458.757812 146.398438 458.59375 145.773438 458.304688 145.179688 L 468.832031 137.320312 C 469.296875 137.703125 469.828125 137.957031 470.417969 138.082031 C 471.007812 138.203125 471.59375 138.183594 472.175781 138.019531 C 472.753906 137.851562 473.265625 137.5625 473.699219 137.144531 C 474.136719 136.730469 474.453125 136.234375 474.644531 135.664062 C 474.839844 135.089844 474.886719 134.507812 474.792969 133.910156 C 474.699219 133.3125 474.46875 132.773438 474.109375 132.289062 C 473.75 131.808594 473.296875 131.433594 472.75 131.175781 C 472.207031 130.914062 471.632812 130.796875 471.027344 130.820312 C 470.425781 130.84375 469.863281 131.003906 469.339844 131.304688 C 468.816406 131.605469 468.390625 132.011719 468.070312 132.519531 C 467.746094 133.03125 467.558594 133.585938 467.507812 134.1875 C 467.460938 134.789062 467.554688 135.367188 467.789062 135.921875 L 457.257812 143.78125 C 456.804688 143.363281 456.289062 143.042969 455.710938 142.824219 C 455.132812 142.605469 454.535156 142.5 453.917969 142.515625 C 453.300781 142.527344 452.707031 142.65625 452.140625 142.902344 C 451.570312 143.144531 451.070312 143.484375 450.632812 143.925781 L 438.671875 135.78125 C 438.882812 135.214844 438.949219 134.632812 438.875 134.035156 C 438.800781 133.433594 438.59375 132.886719 438.25 132.390625 C 437.90625 131.894531 437.464844 131.507812 436.933594 131.226562 C 436.398438 130.945312 435.828125 130.804688 435.226562 130.804688 Z M 502.148438 167.734375 C 506.167969 235.355469 427.746094 222.449219 426.4375 302.164062 C 436.910156 285.332031 448.066406 278.621094 459.914062 282.03125 C 476.921875 293.347656 487.589844 293.480469 491.917969 282.429688 C 491.246094 278 492.351562 274.941406 495.242188 273.261719 C 500.417969 272.875 502.378906 270.3125 501.128906 265.582031 C 505.523438 266.671875 507.960938 265.535156 508.4375 262.175781 C 506.726562 256.019531 509.929688 252.835938 518.042969 252.625 C 523.8125 252.140625 526.4375 250.042969 525.921875 246.328125 C 523.863281 236.046875 522.449219 228.757812 521.683594 224.464844 C 519.796875 217.902344 520.84375 211.640625 524.824219 205.679688 C 539.511719 172.734375 531.429688 144.066406 500.585938 119.679688 C 458.171875 90.945312 419.265625 96.027344 395.285156 123.230469 C 399.8125 119.242188 404.800781 115.957031 410.253906 113.371094 C 415.703125 110.785156 421.40625 109 427.355469 108.015625 C 433.308594 107.035156 439.28125 106.890625 445.273438 107.582031 C 451.265625 108.277344 457.046875 109.785156 462.617188 112.105469 C 468.1875 114.425781 473.328125 117.464844 478.042969 121.230469 C 482.757812 124.996094 486.863281 129.335938 490.355469 134.253906 C 493.851562 139.171875 496.597656 144.476562 498.601562 150.167969 C 500.605469 155.859375 501.789062 161.714844 502.144531 167.738281 Z M 502.148438 167.734375 " clip-rule="evenodd"/></clipPath></defs><g clip-path="url(#2a865db519)"><path fill="#ffffff" d="M 434.023438 221.410156 L 435.976562 212 C 435.671875 211.753906 435.390625 211.484375 435.140625 211.183594 C 434.890625 210.882812 434.671875 210.558594 434.488281 210.214844 C 434.300781 209.871094 434.152344 209.511719 434.039062 209.136719 C 433.929688 208.761719 433.855469 208.378906 433.820312 207.988281 C 433.785156 207.597656 433.792969 207.207031 433.835938 206.820312 C 433.882812 206.429688 433.964844 206.050781 434.085938 205.679688 C 434.210938 205.308594 434.367188 204.953125 434.5625 204.613281 C 434.757812 204.273438 434.984375 203.957031 435.246094 203.664062 C 435.503906 203.371094 435.789062 203.105469 436.101562 202.871094 C 436.414062 202.636719 436.75 202.433594 437.101562 202.269531 C 437.457031 202.101562 437.824219 201.972656 438.203125 201.878906 C 438.585938 201.785156 438.96875 201.734375 439.363281 201.71875 C 439.753906 201.707031 440.140625 201.730469 440.527344 201.796875 C 440.914062 201.859375 441.289062 201.964844 441.652344 202.105469 C 442.019531 202.246094 442.363281 202.425781 442.695312 202.636719 C 443.023438 202.847656 443.328125 203.09375 443.605469 203.367188 L 462.375 188.605469 C 462.132812 188.15625 461.964844 187.679688 461.871094 187.175781 L 437.671875 186.417969 C 437.617188 187.316406 437.414062 188.179688 437.0625 189.007812 C 436.714844 189.839844 436.238281 190.589844 435.632812 191.257812 C 435.03125 191.925781 434.332031 192.476562 433.542969 192.910156 C 432.753906 193.339844 431.914062 193.632812 431.027344 193.78125 L 433.226562 221.246094 C 433.492188 221.277344 433.753906 221.328125 434.011719 221.40625 M 435.746094 167.351562 C 436.113281 167.40625 436.484375 167.433594 436.855469 167.433594 C 437.285156 167.433594 437.710938 167.398438 438.132812 167.324219 C 438.554688 167.246094 438.96875 167.136719 439.371094 166.992188 C 439.773438 166.84375 440.160156 166.664062 440.53125 166.449219 C 440.902344 166.234375 441.253906 165.988281 441.582031 165.714844 C 441.910156 165.4375 442.214844 165.136719 442.488281 164.808594 C 442.765625 164.480469 443.011719 164.128906 443.226562 163.757812 C 443.441406 163.386719 443.621094 163 443.765625 162.59375 C 443.914062 162.191406 444.023438 161.78125 444.101562 161.355469 L 460.714844 162.308594 C 460.777344 162.867188 460.933594 163.398438 461.179688 163.90625 C 461.421875 164.410156 461.742188 164.867188 462.136719 165.265625 C 462.535156 165.664062 462.984375 165.988281 463.488281 166.238281 C 463.992188 166.488281 464.523438 166.648438 465.082031 166.71875 L 465.726562 181.304688 C 465.230469 181.414062 464.765625 181.59375 464.324219 181.847656 C 463.882812 182.097656 463.488281 182.40625 463.144531 182.777344 C 462.796875 183.148438 462.511719 183.558594 462.289062 184.015625 C 462.066406 184.472656 461.914062 184.949219 461.835938 185.449219 L 437.59375 184.691406 C 437.488281 184.007812 437.292969 183.347656 437.015625 182.714844 C 436.734375 182.085938 436.378906 181.496094 435.949219 180.957031 C 435.515625 180.417969 435.023438 179.941406 434.46875 179.53125 C 433.910156 179.117188 433.3125 178.785156 432.671875 178.527344 Z M 430.011719 162.792969 C 430.382812 163.722656 430.917969 164.539062 431.621094 165.25 C 432.324219 165.960938 433.136719 166.507812 434.058594 166.886719 C 432.871094 171.109375 432.023438 173.988281 430.796875 178.03125 C 430.441406 177.984375 432.054688 178.410156 429.714844 177.960938 C 424.113281 176.863281 417.121094 187.230469 425.984375 192.964844 C 425.019531 195.765625 423.675781 199.800781 422.601562 202.703125 C 422.292969 202.605469 421.976562 202.558594 421.652344 202.558594 L 421.558594 202.558594 C 418.234375 192.382812 414.945312 182.527344 411.441406 172.484375 C 411.890625 172.246094 412.300781 171.945312 412.671875 171.59375 C 413.042969 171.242188 413.359375 170.84375 413.621094 170.40625 C 413.882812 169.96875 414.082031 169.5 414.21875 169.007812 C 414.355469 168.515625 414.421875 168.011719 414.421875 167.5 C 414.421875 167.3125 414.410156 167.105469 414.390625 166.914062 Z M 418.222656 144.28125 C 418.324219 144.511719 418.449219 144.730469 418.59375 144.9375 C 418.742188 145.144531 418.90625 145.332031 419.09375 145.503906 C 419.277344 145.675781 419.476562 145.828125 419.695312 145.960938 C 419.910156 146.089844 420.140625 146.195312 420.378906 146.28125 C 420.617188 146.363281 420.863281 146.421875 421.113281 146.457031 C 421.363281 146.488281 421.613281 146.496094 421.867188 146.476562 C 422.117188 146.457031 422.367188 146.414062 422.609375 146.34375 C 422.851562 146.273438 423.085938 146.179688 423.308594 146.0625 L 431.371094 155.175781 C 430.648438 155.984375 430.132812 156.90625 429.816406 157.941406 C 429.503906 158.976562 429.421875 160.03125 429.574219 161.101562 L 413.957031 165.230469 C 413.695312 164.636719 413.34375 164.101562 412.898438 163.625 C 412.453125 163.152344 411.941406 162.765625 411.367188 162.46875 C 410.789062 162.167969 410.175781 161.976562 409.53125 161.886719 C 408.886719 161.800781 408.246094 161.824219 407.613281 161.957031 C 406.976562 162.089844 406.378906 162.324219 405.824219 162.664062 C 405.269531 163.003906 404.785156 163.421875 404.375 163.929688 C 403.964844 164.433594 403.652344 164.992188 403.4375 165.605469 C 403.21875 166.21875 403.109375 166.847656 403.109375 167.5 C 403.109375 167.695312 403.121094 167.890625 403.144531 168.085938 L 392.910156 170.792969 C 392.761719 170.511719 392.582031 170.25 392.367188 170.011719 L 407.300781 148.960938 C 407.53125 149.023438 407.765625 149.054688 408.007812 149.054688 C 408.324219 149.054688 408.628906 149 408.925781 148.886719 C 409.222656 148.777344 409.488281 148.613281 409.722656 148.40625 C 409.960938 148.195312 410.152344 147.949219 410.300781 147.667969 C 410.445312 147.390625 410.539062 147.089844 410.578125 146.777344 Z M 435.222656 130.804688 C 434.921875 130.804688 434.628906 130.84375 434.339844 130.914062 C 434.050781 130.984375 433.773438 131.089844 433.507812 131.230469 C 433.242188 131.371094 433 131.539062 432.777344 131.738281 C 432.554688 131.9375 432.359375 132.15625 432.1875 132.40625 C 432.019531 132.652344 431.882812 132.914062 431.777344 133.191406 C 431.675781 133.472656 431.605469 133.761719 431.570312 134.058594 C 431.535156 134.355469 431.535156 134.648438 431.574219 134.945312 C 431.609375 135.242188 431.683594 135.53125 431.789062 135.808594 C 431.898438 136.085938 432.035156 136.347656 432.207031 136.59375 C 432.378906 136.839844 432.574219 137.058594 432.800781 137.253906 C 433.023438 137.453125 433.269531 137.617188 433.535156 137.757812 C 433.800781 137.894531 434.078125 137.996094 434.367188 138.066406 C 434.660156 138.136719 434.953125 138.167969 435.253906 138.167969 C 435.550781 138.164062 435.84375 138.125 436.132812 138.050781 C 436.421875 137.980469 436.699219 137.871094 436.960938 137.730469 C 437.226562 137.589844 437.46875 137.417969 437.691406 137.21875 L 449.65625 145.363281 C 449.371094 146.007812 449.238281 146.683594 449.253906 147.386719 C 449.269531 148.089844 449.429688 148.757812 449.738281 149.390625 L 442.203125 155.023438 C 441.902344 154.707031 441.578125 154.421875 441.226562 154.164062 C 440.875 153.90625 440.503906 153.679688 440.113281 153.488281 C 439.722656 153.296875 439.320312 153.140625 438.902344 153.019531 C 438.484375 152.902344 438.058594 152.820312 437.625 152.773438 C 437.191406 152.730469 436.757812 152.722656 436.324219 152.753906 C 435.890625 152.789062 435.460938 152.855469 435.042969 152.964844 C 434.621094 153.074219 434.210938 153.21875 433.816406 153.398438 C 433.417969 153.578125 433.042969 153.792969 432.683594 154.039062 L 424.621094 144.925781 C 424.859375 144.585938 425.035156 144.21875 425.144531 143.820312 C 425.257812 143.425781 425.304688 143.019531 425.28125 142.609375 C 425.257812 142.195312 425.167969 141.800781 425.011719 141.417969 C 424.855469 141.035156 424.636719 140.691406 424.367188 140.378906 C 424.09375 140.070312 423.777344 139.816406 423.417969 139.613281 C 423.058594 139.410156 422.675781 139.269531 422.269531 139.195312 C 421.863281 139.121094 421.457031 139.117188 421.046875 139.179688 C 420.640625 139.242188 420.253906 139.371094 419.890625 139.5625 L 410.453125 128.878906 C 410.507812 128.667969 410.535156 128.449219 410.535156 128.226562 C 410.535156 127.941406 410.488281 127.660156 410.394531 127.390625 L 417.8125 124.390625 C 418.039062 124.707031 418.308594 124.980469 418.625 125.210938 C 418.9375 125.4375 419.277344 125.613281 419.648438 125.738281 C 420.019531 125.859375 420.398438 125.917969 420.789062 125.921875 C 421.175781 125.921875 421.554688 125.863281 421.925781 125.742188 C 422.296875 125.625 422.640625 125.449219 422.957031 125.222656 C 423.269531 124.996094 423.542969 124.722656 423.773438 124.410156 C 424 124.09375 424.175781 123.753906 424.296875 123.382812 C 424.417969 123.011719 424.480469 122.632812 424.480469 122.246094 C 424.480469 122.066406 424.464844 121.886719 424.441406 121.707031 L 431.65625 118.789062 C 431.789062 118.9375 431.933594 119.070312 432.09375 119.183594 C 432.257812 119.296875 432.429688 119.390625 432.609375 119.46875 C 432.792969 119.542969 432.984375 119.59375 433.175781 119.628906 C 433.371094 119.660156 433.570312 119.667969 433.765625 119.65625 C 433.964844 119.640625 434.15625 119.609375 434.34375 119.550781 C 434.535156 119.492188 434.714844 119.414062 434.886719 119.316406 C 435.058594 119.21875 435.214844 119.101562 435.359375 118.96875 C 435.503906 118.832031 435.632812 118.683594 435.742188 118.519531 L 446.457031 121.285156 C 446.457031 121.332031 446.457031 121.378906 446.457031 121.425781 C 446.457031 121.753906 446.496094 122.074219 446.574219 122.390625 C 446.652344 122.707031 446.769531 123.011719 446.921875 123.300781 C 447.074219 123.589844 447.257812 123.855469 447.476562 124.097656 C 447.691406 124.34375 447.933594 124.554688 448.203125 124.742188 C 448.472656 124.925781 448.761719 125.074219 449.066406 125.191406 C 449.371094 125.304688 449.6875 125.382812 450.011719 125.421875 C 450.335938 125.457031 450.660156 125.457031 450.980469 125.417969 C 451.304688 125.375 451.621094 125.296875 451.925781 125.179688 C 452.230469 125.0625 452.515625 124.910156 452.785156 124.722656 C 453.050781 124.535156 453.292969 124.320312 453.507812 124.074219 C 453.722656 123.828125 453.90625 123.5625 454.054688 123.273438 C 454.203125 122.980469 454.316406 122.679688 454.394531 122.359375 C 454.46875 122.042969 454.503906 121.722656 454.503906 121.394531 C 454.5 121.070312 454.460938 120.746094 454.378906 120.429688 C 454.296875 120.113281 454.179688 119.8125 454.027344 119.523438 C 453.871094 119.238281 453.683594 118.972656 453.464844 118.730469 C 453.246094 118.488281 453.003906 118.273438 452.734375 118.09375 C 452.460938 117.910156 452.175781 117.761719 451.867188 117.648438 C 451.5625 117.539062 451.246094 117.464844 450.921875 117.425781 C 450.597656 117.390625 450.273438 117.394531 449.949219 117.4375 C 449.625 117.480469 449.3125 117.5625 449.007812 117.683594 C 448.703125 117.800781 448.417969 117.957031 448.152344 118.144531 C 447.886719 118.332031 447.648438 118.550781 447.433594 118.796875 C 447.222656 119.046875 447.039062 119.316406 446.894531 119.605469 L 436.179688 116.839844 C 436.148438 116.507812 436.058594 116.191406 435.910156 115.890625 C 435.757812 115.59375 435.558594 115.335938 435.304688 115.113281 C 435.054688 114.894531 434.769531 114.726562 434.457031 114.617188 C 434.140625 114.503906 433.816406 114.457031 433.480469 114.472656 C 433.148438 114.488281 432.828125 114.566406 432.523438 114.703125 C 432.21875 114.839844 431.953125 115.03125 431.722656 115.273438 C 431.492188 115.515625 431.3125 115.792969 431.191406 116.101562 C 431.066406 116.414062 431.003906 116.738281 431.007812 117.070312 L 431.007812 117.175781 L 423.789062 120.097656 C 423.5625 119.78125 423.292969 119.507812 422.976562 119.277344 C 422.664062 119.046875 422.320312 118.871094 421.953125 118.746094 C 421.582031 118.625 421.203125 118.5625 420.8125 118.5625 C 420.421875 118.5625 420.042969 118.621094 419.671875 118.738281 C 419.300781 118.859375 418.957031 119.035156 418.644531 119.261719 C 418.328125 119.488281 418.054688 119.761719 417.824219 120.078125 C 417.597656 120.390625 417.421875 120.734375 417.300781 121.105469 C 417.179688 121.476562 417.121094 121.855469 417.121094 122.246094 C 417.121094 122.421875 417.132812 122.597656 417.160156 122.777344 L 409.234375 125.964844 C 408.964844 125.8125 408.675781 125.707031 408.367188 125.65625 C 408.0625 125.601562 407.753906 125.605469 407.449219 125.664062 C 407.144531 125.722656 406.859375 125.832031 406.59375 125.996094 C 406.324219 126.15625 406.097656 126.359375 405.902344 126.601562 C 405.710938 126.847656 405.566406 127.117188 405.46875 127.414062 C 405.375 127.710938 405.332031 128.011719 405.347656 128.324219 C 405.359375 128.632812 405.425781 128.933594 405.546875 129.21875 C 405.667969 129.507812 405.835938 129.761719 406.050781 129.988281 C 406.265625 130.214844 406.511719 130.398438 406.789062 130.535156 C 407.070312 130.671875 407.363281 130.757812 407.671875 130.789062 C 407.980469 130.820312 408.289062 130.796875 408.589844 130.71875 C 408.890625 130.640625 409.167969 130.511719 409.421875 130.335938 L 418.578125 140.699219 C 418.285156 141.117188 418.089844 141.570312 417.988281 142.070312 L 409.902344 144.71875 C 409.773438 144.578125 409.636719 144.457031 409.480469 144.347656 C 409.328125 144.238281 409.167969 144.148438 408.992188 144.074219 C 408.820312 144.003906 408.640625 143.949219 408.457031 143.917969 C 408.273438 143.882812 408.085938 143.867188 407.898438 143.875 C 407.710938 143.882812 407.527344 143.910156 407.347656 143.957031 C 407.164062 144.003906 406.992188 144.066406 406.824219 144.152344 C 406.65625 144.238281 406.5 144.339844 406.355469 144.457031 C 406.210938 144.574219 406.078125 144.707031 405.960938 144.855469 L 399.886719 142.78125 C 399.886719 142.652344 399.90625 142.515625 399.90625 142.378906 C 399.90625 142.066406 399.867188 141.761719 399.796875 141.457031 C 399.722656 141.15625 399.613281 140.867188 399.472656 140.589844 C 399.328125 140.3125 399.15625 140.058594 398.949219 139.824219 C 398.746094 139.589844 398.519531 139.382812 398.265625 139.199219 C 398.011719 139.019531 397.738281 138.875 397.449219 138.757812 C 397.160156 138.644531 396.863281 138.566406 396.554688 138.523438 C 396.246094 138.480469 395.9375 138.472656 395.625 138.503906 C 395.316406 138.535156 395.015625 138.601562 394.722656 138.703125 C 394.429688 138.808594 394.152344 138.945312 393.890625 139.113281 C 393.628906 139.285156 393.394531 139.480469 393.179688 139.707031 C 392.964844 139.933594 392.78125 140.183594 392.628906 140.453125 C 392.476562 140.726562 392.355469 141.007812 392.269531 141.308594 C 392.1875 141.609375 392.136719 141.914062 392.125 142.222656 C 392.113281 142.535156 392.136719 142.84375 392.199219 143.148438 C 392.261719 143.453125 392.359375 143.746094 392.488281 144.027344 C 392.621094 144.308594 392.785156 144.570312 392.980469 144.8125 C 393.175781 145.054688 393.398438 145.273438 393.644531 145.460938 C 393.890625 145.652344 394.15625 145.808594 394.441406 145.933594 C 394.726562 146.0625 395.019531 146.152344 395.328125 146.207031 C 395.632812 146.261719 395.941406 146.277344 396.25 146.257812 C 396.5625 146.242188 396.867188 146.183594 397.164062 146.09375 C 397.460938 146 397.742188 145.875 398.011719 145.714844 C 398.277344 145.554688 398.523438 145.367188 398.742188 145.148438 C 398.964844 144.929688 399.15625 144.6875 399.320312 144.425781 L 405.398438 146.503906 C 405.402344 146.652344 405.414062 146.800781 405.445312 146.949219 L 387.546875 157.421875 C 387.332031 157.191406 387.089844 156.988281 386.824219 156.816406 C 386.558594 156.644531 386.277344 156.507812 385.980469 156.40625 C 385.679688 156.300781 385.375 156.238281 385.058594 156.210938 C 384.742188 156.183594 384.429688 156.191406 384.117188 156.242188 C 383.804688 156.289062 383.503906 156.375 383.210938 156.5 C 382.921875 156.621094 382.648438 156.777344 382.394531 156.964844 C 382.140625 157.15625 381.914062 157.371094 381.714844 157.617188 C 381.511719 157.859375 381.34375 158.125 381.210938 158.410156 C 381.074219 158.695312 380.972656 158.992188 380.910156 159.304688 C 380.847656 159.613281 380.824219 159.925781 380.835938 160.242188 C 380.851562 160.558594 380.902344 160.867188 380.988281 161.171875 C 381.078125 161.472656 381.203125 161.761719 381.363281 162.035156 C 381.523438 162.308594 381.710938 162.558594 381.933594 162.785156 C 382.152344 163.011719 382.398438 163.207031 382.664062 163.375 C 382.933594 163.542969 383.21875 163.675781 383.519531 163.773438 C 383.820312 163.871094 384.128906 163.929688 384.441406 163.953125 C 384.757812 163.976562 385.070312 163.957031 385.382812 163.90625 C 385.695312 163.851562 385.996094 163.757812 386.285156 163.632812 C 386.574219 163.503906 386.84375 163.34375 387.09375 163.148438 C 387.34375 162.957031 387.566406 162.734375 387.761719 162.488281 C 387.957031 162.238281 388.121094 161.972656 388.253906 161.683594 C 388.382812 161.398438 388.476562 161.097656 388.535156 160.785156 C 388.59375 160.476562 388.613281 160.164062 388.59375 159.847656 C 388.574219 159.53125 388.519531 159.222656 388.425781 158.921875 L 404.96875 149.234375 L 390.96875 169.015625 C 390.710938 168.910156 390.449219 168.832031 390.175781 168.785156 C 389.902344 168.734375 389.628906 168.714844 389.351562 168.726562 C 389.078125 168.734375 388.804688 168.773438 388.535156 168.839844 C 388.269531 168.910156 388.011719 169.003906 387.761719 169.125 C 387.515625 169.25 387.28125 169.394531 387.066406 169.566406 C 386.851562 169.738281 386.65625 169.933594 386.480469 170.148438 C 386.304688 170.359375 386.152344 170.589844 386.027344 170.835938 C 385.902344 171.082031 385.804688 171.339844 385.730469 171.605469 C 385.660156 171.875 385.617188 172.144531 385.605469 172.421875 C 385.589844 172.699219 385.605469 172.972656 385.652344 173.246094 C 385.699219 173.515625 385.769531 173.78125 385.875 174.039062 C 385.976562 174.296875 386.101562 174.539062 386.257812 174.769531 C 386.410156 175 386.585938 175.210938 386.785156 175.402344 C 386.984375 175.59375 387.199219 175.761719 387.4375 175.910156 C 387.671875 176.054688 387.917969 176.175781 388.179688 176.269531 C 388.4375 176.359375 388.707031 176.425781 388.980469 176.460938 C 389.253906 176.496094 389.527344 176.503906 389.804688 176.480469 C 390.078125 176.457031 390.351562 176.40625 390.613281 176.328125 C 390.878906 176.246094 391.132812 176.140625 391.375 176.003906 C 391.617188 175.871094 391.839844 175.710938 392.046875 175.53125 C 392.253906 175.347656 392.441406 175.144531 392.605469 174.921875 C 392.769531 174.703125 392.910156 174.464844 393.023438 174.210938 C 393.140625 173.960938 393.226562 173.699219 393.285156 173.429688 C 393.34375 173.160156 393.371094 172.886719 393.371094 172.609375 C 393.371094 172.566406 393.371094 172.523438 393.371094 172.484375 L 403.601562 169.777344 C 403.90625 170.472656 404.332031 171.082031 404.882812 171.605469 C 405.429688 172.128906 406.0625 172.527344 406.769531 172.796875 L 402.476562 192.964844 C 401.476562 192.972656 400.601562 193.308594 399.855469 193.972656 L 393.714844 189.476562 C 393.847656 189.175781 393.941406 188.867188 393.996094 188.542969 C 394.050781 188.21875 394.066406 187.894531 394.042969 187.566406 C 394.019531 187.238281 393.957031 186.917969 393.855469 186.605469 C 393.753906 186.292969 393.613281 186 393.4375 185.722656 C 393.265625 185.441406 393.058594 185.191406 392.824219 184.960938 C 392.585938 184.734375 392.324219 184.539062 392.042969 184.375 C 391.757812 184.210938 391.457031 184.082031 391.140625 183.992188 C 390.824219 183.902344 390.503906 183.851562 390.175781 183.839844 C 389.847656 183.828125 389.523438 183.855469 389.203125 183.925781 C 388.882812 183.992188 388.574219 184.097656 388.277344 184.242188 C 387.980469 184.382812 387.707031 184.5625 387.457031 184.769531 C 387.203125 184.980469 386.980469 185.21875 386.785156 185.484375 C 386.59375 185.75 386.433594 186.03125 386.308594 186.335938 C 386.183594 186.640625 386.097656 186.957031 386.050781 187.28125 C 386.003906 187.605469 385.996094 187.929688 386.03125 188.257812 C 386.0625 188.585938 386.132812 188.902344 386.242188 189.210938 C 386.355469 189.519531 386.5 189.8125 386.683594 190.085938 C 386.863281 190.359375 387.074219 190.605469 387.316406 190.828125 C 387.558594 191.050781 387.824219 191.238281 388.113281 191.394531 C 388.402344 191.550781 388.707031 191.671875 389.023438 191.753906 C 389.339844 191.835938 389.664062 191.878906 389.992188 191.882812 C 390.320312 191.886719 390.644531 191.847656 390.964844 191.773438 C 391.285156 191.695312 391.589844 191.582031 391.878906 191.433594 C 392.171875 191.28125 392.441406 191.097656 392.6875 190.882812 L 398.824219 195.371094 C 398.40625 196.332031 398.367188 197.308594 398.703125 198.300781 L 383.398438 207.671875 C 383.167969 207.433594 382.917969 207.230469 382.640625 207.054688 C 382.359375 206.878906 382.066406 206.742188 381.753906 206.640625 C 381.441406 206.539062 381.125 206.476562 380.796875 206.453125 C 380.46875 206.429688 380.144531 206.445312 379.820312 206.5 C 379.496094 206.554688 379.1875 206.648438 378.886719 206.78125 C 378.585938 206.914062 378.304688 207.082031 378.046875 207.28125 C 377.785156 207.480469 377.554688 207.710938 377.351562 207.96875 C 377.148438 208.226562 376.980469 208.503906 376.84375 208.800781 C 376.707031 209.101562 376.613281 209.410156 376.550781 209.734375 C 376.492188 210.054688 376.472656 210.382812 376.492188 210.707031 C 376.515625 211.035156 376.574219 211.355469 376.671875 211.667969 C 376.769531 211.980469 376.90625 212.277344 377.078125 212.558594 C 377.25 212.835938 377.449219 213.09375 377.683594 213.324219 C 377.917969 213.550781 378.175781 213.75 378.457031 213.917969 C 378.742188 214.085938 379.039062 214.214844 379.351562 214.308594 C 379.667969 214.402344 379.988281 214.457031 380.316406 214.472656 C 380.644531 214.488281 380.96875 214.464844 381.289062 214.402344 C 381.609375 214.335938 381.921875 214.234375 382.21875 214.09375 C 382.511719 213.957031 382.789062 213.78125 383.042969 213.574219 C 383.296875 213.367188 383.523438 213.132812 383.71875 212.871094 C 383.917969 212.609375 384.078125 212.324219 384.207031 212.023438 C 384.332031 211.722656 384.421875 211.410156 384.472656 211.085938 C 384.523438 210.761719 384.535156 210.433594 384.507812 210.109375 C 384.480469 209.78125 384.410156 209.464844 384.304688 209.152344 L 399.613281 199.78125 C 400.40625 200.605469 401.371094 201.015625 402.511719 201.011719 C 402.980469 201.011719 403.4375 200.933594 403.882812 200.773438 L 406.84375 206.082031 C 406.601562 206.296875 406.386719 206.539062 406.203125 206.808594 C 406.019531 207.078125 405.871094 207.363281 405.761719 207.667969 C 405.648438 207.976562 405.574219 208.289062 405.535156 208.613281 C 405.5 208.9375 405.503906 209.257812 405.546875 209.582031 C 405.589844 209.902344 405.671875 210.214844 405.789062 210.519531 C 405.910156 210.820312 406.0625 211.105469 406.253906 211.371094 C 406.441406 211.632812 406.660156 211.871094 406.90625 212.082031 C 407.15625 212.296875 407.421875 212.472656 407.714844 212.621094 C 408.003906 212.765625 408.308594 212.875 408.625 212.945312 C 408.945312 213.015625 409.265625 213.046875 409.589844 213.039062 C 409.914062 213.035156 410.234375 212.988281 410.550781 212.902344 C 410.863281 212.816406 411.160156 212.695312 411.445312 212.535156 C 411.730469 212.375 411.988281 212.1875 412.226562 211.964844 C 412.464844 211.742188 412.671875 211.492188 412.847656 211.21875 C 413.023438 210.945312 413.167969 210.65625 413.273438 210.347656 C 413.378906 210.042969 413.445312 209.726562 413.472656 209.402344 C 413.5 209.078125 413.492188 208.753906 413.441406 208.433594 C 413.390625 208.113281 413.300781 207.800781 413.175781 207.503906 C 413.046875 207.203125 412.886719 206.921875 412.691406 206.664062 C 412.496094 206.402344 412.273438 206.167969 412.019531 205.964844 C 411.769531 205.757812 411.496094 205.585938 411.203125 205.445312 C 410.90625 205.308594 410.601562 205.207031 410.28125 205.144531 C 409.964844 205.078125 409.640625 205.054688 409.316406 205.070312 C 408.992188 205.085938 408.671875 205.136719 408.363281 205.230469 L 405.34375 199.84375 C 405.574219 199.613281 405.773438 199.359375 405.941406 199.082031 C 406.113281 198.804688 406.246094 198.511719 406.34375 198.199219 C 406.441406 197.890625 406.5 197.574219 406.519531 197.25 C 406.539062 196.925781 406.523438 196.601562 406.464844 196.28125 C 406.40625 195.960938 406.3125 195.652344 406.179688 195.355469 C 406.046875 195.058594 405.882812 194.78125 405.683594 194.527344 C 405.484375 194.269531 405.257812 194.039062 405 193.839844 C 404.746094 193.636719 404.472656 193.46875 404.175781 193.332031 L 408.46875 173.164062 C 408.570312 173.164062 408.675781 173.164062 408.78125 173.164062 C 409.132812 173.164062 409.480469 173.128906 409.824219 173.066406 L 413.714844 184.046875 L 419.921875 203.097656 C 419.453125 203.417969 419.101562 203.832031 418.859375 204.34375 C 418.621094 204.855469 418.527344 205.394531 418.578125 205.957031 C 418.632812 206.519531 418.828125 207.03125 419.160156 207.488281 C 419.492188 207.945312 419.917969 208.289062 420.4375 208.511719 L 416.535156 218.910156 C 415.925781 218.796875 415.320312 218.800781 414.714844 218.914062 C 414.109375 219.027344 413.542969 219.246094 413.019531 219.570312 C 412.492188 219.890625 412.042969 220.300781 411.667969 220.789062 C 411.296875 221.28125 411.023438 221.820312 410.847656 222.414062 L 403.441406 221.617188 C 403.375 221.246094 403.246094 220.902344 403.050781 220.578125 C 402.859375 220.253906 402.617188 219.972656 402.320312 219.738281 C 402.023438 219.503906 401.699219 219.328125 401.339844 219.214844 C 400.980469 219.097656 400.613281 219.046875 400.238281 219.066406 C 399.859375 219.085938 399.5 219.167969 399.152344 219.320312 C 398.804688 219.46875 398.496094 219.675781 398.226562 219.9375 C 397.957031 220.199219 397.738281 220.5 397.578125 220.839844 C 397.417969 221.183594 397.320312 221.539062 397.292969 221.917969 C 397.261719 222.292969 397.296875 222.660156 397.402344 223.023438 C 397.503906 223.386719 397.671875 223.71875 397.894531 224.019531 C 398.121094 224.324219 398.390625 224.578125 398.707031 224.78125 C 399.027344 224.984375 399.367188 225.125 399.738281 225.203125 L 401.40625 247.722656 C 401.09375 247.816406 400.792969 247.949219 400.511719 248.117188 C 400.226562 248.28125 399.96875 248.480469 399.734375 248.710938 C 399.503906 248.941406 399.300781 249.199219 399.128906 249.480469 C 398.957031 249.757812 398.820312 250.054688 398.722656 250.367188 C 398.625 250.683594 398.566406 251.003906 398.546875 251.332031 C 398.523438 251.660156 398.542969 251.984375 398.605469 252.308594 C 398.664062 252.628906 398.761719 252.941406 398.898438 253.238281 C 399.03125 253.539062 399.203125 253.816406 399.40625 254.074219 C 399.609375 254.332031 399.839844 254.5625 400.101562 254.761719 C 400.363281 254.964844 400.640625 255.128906 400.941406 255.261719 C 401.242188 255.394531 401.554688 255.488281 401.878906 255.542969 C 402.203125 255.597656 402.527344 255.617188 402.855469 255.589844 C 403.183594 255.566406 403.503906 255.503906 403.816406 255.402344 C 404.128906 255.300781 404.421875 255.160156 404.699219 254.988281 C 404.980469 254.8125 405.230469 254.605469 405.460938 254.371094 C 405.6875 254.132812 405.882812 253.871094 406.046875 253.589844 C 406.210938 253.304688 406.339844 253.003906 406.429688 252.6875 C 406.519531 252.371094 406.570312 252.050781 406.582031 251.722656 C 406.59375 251.394531 406.566406 251.070312 406.5 250.746094 C 406.433594 250.425781 406.328125 250.117188 406.183594 249.820312 C 406.039062 249.527344 405.863281 249.253906 405.652344 249 C 405.441406 248.75 405.203125 248.523438 404.941406 248.332031 C 404.675781 248.136719 404.390625 247.976562 404.085938 247.851562 C 403.78125 247.730469 403.46875 247.644531 403.140625 247.597656 L 401.476562 225.074219 C 402.320312 224.757812 402.914062 224.183594 403.257812 223.347656 L 410.664062 224.140625 C 410.679688 224.355469 410.707031 224.566406 410.75 224.773438 C 410.792969 224.984375 410.847656 225.1875 410.914062 225.390625 C 410.980469 225.59375 411.0625 225.789062 411.15625 225.980469 C 411.25 226.171875 411.355469 226.359375 411.472656 226.535156 C 411.589844 226.714844 411.71875 226.882812 411.855469 227.046875 C 411.996094 227.207031 412.144531 227.359375 412.304688 227.503906 C 412.460938 227.644531 412.628906 227.777344 412.804688 227.898438 C 412.980469 228.019531 413.164062 228.128906 413.351562 228.226562 C 413.542969 228.324219 413.738281 228.40625 413.9375 228.480469 C 414.136719 228.550781 414.34375 228.613281 414.550781 228.65625 C 414.757812 228.703125 414.96875 228.738281 415.183594 228.753906 C 415.394531 228.773438 415.605469 228.78125 415.820312 228.773438 C 416.03125 228.765625 416.246094 228.742188 416.457031 228.707031 C 416.664062 228.671875 416.871094 228.621094 417.078125 228.558594 C 417.28125 228.496094 417.480469 228.421875 417.675781 228.335938 C 417.867188 228.246094 418.054688 228.148438 418.238281 228.035156 C 418.417969 227.921875 418.59375 227.800781 418.757812 227.667969 C 418.925781 227.53125 419.082031 227.386719 419.226562 227.234375 C 419.375 227.078125 419.511719 226.917969 419.636719 226.742188 C 419.765625 226.570312 419.878906 226.394531 419.980469 226.207031 C 420.085938 226.019531 420.175781 225.828125 420.253906 225.628906 C 420.332031 225.429688 420.398438 225.226562 420.449219 225.019531 C 420.5 224.8125 420.539062 224.605469 420.566406 224.394531 C 420.589844 224.183594 420.601562 223.96875 420.601562 223.757812 C 420.597656 223.542969 420.582031 223.332031 420.554688 223.121094 C 420.523438 222.90625 420.480469 222.699219 420.425781 222.492188 C 420.371094 222.289062 420.300781 222.085938 420.21875 221.890625 C 420.136719 221.691406 420.042969 221.503906 419.9375 221.316406 C 419.828125 221.132812 419.710938 220.957031 419.582031 220.785156 C 419.453125 220.617188 419.3125 220.457031 419.164062 220.304688 C 419.015625 220.152344 418.855469 220.011719 418.6875 219.878906 C 418.519531 219.75 418.34375 219.628906 418.160156 219.519531 L 422.210938 208.722656 C 422.476562 208.675781 422.734375 208.597656 422.976562 208.484375 C 423.222656 208.371094 423.449219 208.226562 423.65625 208.054688 C 423.863281 207.882812 424.046875 207.6875 424.203125 207.464844 C 424.359375 207.246094 424.484375 207.011719 424.582031 206.757812 C 424.675781 206.503906 424.738281 206.246094 424.761719 205.976562 C 424.789062 205.707031 424.78125 205.441406 424.738281 205.171875 C 424.699219 204.90625 424.621094 204.648438 424.511719 204.402344 C 424.402344 204.15625 424.261719 203.929688 424.09375 203.71875 L 427.753906 193.640625 C 428.261719 193.769531 428.777344 193.847656 429.300781 193.878906 L 431.503906 221.339844 C 429.308594 221.859375 427.675781 224 427.675781 226.183594 C 427.675781 228.371094 428.847656 229.902344 430.550781 230.691406 L 419.605469 264.441406 L 419.4375 264.441406 C 419.113281 264.441406 418.792969 264.480469 418.476562 264.558594 C 418.160156 264.636719 417.859375 264.753906 417.570312 264.90625 C 417.285156 265.058594 417.019531 265.242188 416.773438 265.457031 C 416.53125 265.671875 416.316406 265.914062 416.132812 266.183594 C 415.949219 266.453125 415.800781 266.738281 415.683594 267.042969 C 415.570312 267.347656 415.496094 267.664062 415.457031 267.984375 C 415.417969 268.308594 415.417969 268.632812 415.460938 268.953125 C 415.5 269.277344 415.578125 269.589844 415.695312 269.894531 C 415.8125 270.199219 415.960938 270.484375 416.148438 270.75 C 416.332031 271.019531 416.546875 271.261719 416.792969 271.476562 C 417.039062 271.691406 417.304688 271.871094 417.59375 272.023438 C 417.882812 272.171875 418.183594 272.285156 418.5 272.363281 C 418.816406 272.4375 419.136719 272.476562 419.464844 272.472656 C 419.789062 272.472656 420.109375 272.433594 420.425781 272.351562 C 420.742188 272.273438 421.042969 272.15625 421.328125 272.003906 C 421.617188 271.851562 421.882812 271.667969 422.125 271.449219 C 422.367188 271.234375 422.582031 270.988281 422.761719 270.722656 C 422.945312 270.453125 423.09375 270.164062 423.210938 269.859375 C 423.324219 269.554688 423.398438 269.242188 423.433594 268.917969 C 423.472656 268.59375 423.46875 268.269531 423.429688 267.949219 C 423.386719 267.625 423.308594 267.3125 423.191406 267.007812 C 423.074219 266.703125 422.921875 266.417969 422.734375 266.152344 C 422.546875 265.886719 422.332031 265.644531 422.085938 265.433594 C 421.839844 265.21875 421.574219 265.035156 421.285156 264.886719 L 432.230469 231.140625 C 432.367188 231.152344 431.203125 231.160156 432.644531 231.160156 C 434.089844 231.160156 437.621094 228.382812 437.621094 226.1875 C 437.621094 223.988281 436.816406 223.074219 435.582031 222.171875 L 437.480469 212.867188 C 438.03125 213.078125 438.597656 213.203125 439.1875 213.242188 C 439.773438 213.28125 440.355469 213.230469 440.925781 213.089844 C 441.5 212.949219 442.035156 212.730469 442.542969 212.425781 C 443.046875 212.121094 443.492188 211.746094 443.882812 211.308594 C 444.273438 210.867188 444.589844 210.375 444.828125 209.839844 C 445.070312 209.300781 445.222656 208.738281 445.292969 208.15625 C 445.359375 207.570312 445.339844 206.988281 445.230469 206.410156 C 445.121094 205.832031 444.925781 205.28125 444.648438 204.761719 L 463.449219 189.976562 C 463.5 190.023438 463.554688 190.070312 463.609375 190.113281 L 455.253906 204.855469 C 454.847656 204.730469 454.429688 204.667969 454.003906 204.667969 C 453.582031 204.667969 453.171875 204.730469 452.769531 204.855469 C 452.367188 204.980469 451.992188 205.164062 451.644531 205.40625 C 451.296875 205.644531 450.996094 205.929688 450.734375 206.261719 C 450.476562 206.59375 450.269531 206.957031 450.121094 207.351562 C 449.972656 207.746094 449.882812 208.152344 449.859375 208.574219 C 449.832031 208.992188 449.871094 209.40625 449.972656 209.816406 C 450.070312 210.226562 450.230469 210.613281 450.449219 210.972656 C 450.667969 211.332031 450.933594 211.652344 451.246094 211.933594 L 444.15625 232.632812 C 443.761719 232.511719 444.273438 232.445312 442.910156 232.445312 C 441.542969 232.445312 438.75 234.304688 438.75 236.601562 C 438.75 236.875 438.777344 237.144531 438.832031 237.414062 C 438.882812 237.679688 438.964844 237.941406 439.066406 238.191406 C 439.171875 238.445312 439.300781 238.683594 439.453125 238.910156 C 439.605469 239.136719 439.777344 239.347656 439.96875 239.542969 C 440.164062 239.734375 440.371094 239.90625 440.597656 240.058594 C 440.824219 240.210938 441.066406 240.335938 441.316406 240.441406 C 441.570312 240.546875 441.828125 240.625 442.097656 240.679688 C 442.367188 240.730469 442.636719 240.757812 442.910156 240.757812 C 445.203125 240.757812 447.066406 238.367188 447.066406 236.601562 C 447.066406 234.835938 446.527344 234.257812 445.667969 233.492188 L 452.757812 212.792969 L 452.976562 212.851562 L 457.132812 224.710938 C 456.796875 224.785156 456.484375 224.914062 456.195312 225.097656 C 455.90625 225.28125 455.652344 225.507812 455.441406 225.78125 C 455.230469 226.050781 455.070312 226.351562 454.964844 226.675781 C 454.859375 227.003906 454.808594 227.339844 454.820312 227.683594 C 454.820312 229.246094 456.195312 230.75 457.886719 230.75 C 459.582031 230.75 460.953125 229.203125 460.953125 227.683594 C 460.953125 226.160156 460.082031 225.1875 458.867188 224.777344 L 454.710938 212.921875 C 455.1875 212.835938 455.636719 212.675781 456.058594 212.4375 C 456.480469 212.195312 456.847656 211.890625 457.160156 211.523438 C 457.476562 211.15625 457.71875 210.742188 457.890625 210.289062 C 458.0625 209.835938 458.148438 209.367188 458.15625 208.882812 L 477.148438 205.085938 C 477.261719 205.300781 477.402344 205.5 477.5625 205.683594 C 477.722656 205.867188 477.90625 206.027344 478.105469 206.167969 C 478.304688 206.308594 478.519531 206.421875 478.746094 206.511719 C 478.972656 206.597656 479.207031 206.660156 479.449219 206.691406 C 479.691406 206.722656 479.933594 206.726562 480.175781 206.703125 C 480.417969 206.675781 480.65625 206.625 480.886719 206.542969 C 481.117188 206.460938 481.332031 206.351562 481.539062 206.21875 C 481.742188 206.085938 481.925781 205.929688 482.09375 205.75 C 482.261719 205.574219 482.40625 205.378906 482.527344 205.167969 C 482.644531 204.953125 482.738281 204.730469 482.808594 204.496094 C 482.875 204.261719 482.914062 204.023438 482.921875 203.777344 C 482.933594 203.535156 482.914062 203.292969 482.863281 203.054688 C 482.816406 202.8125 482.742188 202.582031 482.640625 202.363281 C 482.535156 202.140625 482.410156 201.933594 482.257812 201.742188 C 482.105469 201.550781 481.933594 201.382812 481.738281 201.234375 C 481.546875 201.082031 481.339844 200.957031 481.117188 200.859375 C 480.894531 200.757812 480.660156 200.6875 480.421875 200.640625 C 480.183594 200.597656 479.941406 200.582031 479.695312 200.59375 C 479.453125 200.605469 479.214844 200.648438 478.980469 200.71875 C 478.746094 200.789062 478.523438 200.882812 478.3125 201.007812 C 478.101562 201.128906 477.910156 201.277344 477.734375 201.445312 C 477.558594 201.617188 477.402344 201.804688 477.273438 202.007812 C 477.140625 202.214844 477.035156 202.433594 476.957031 202.664062 C 476.878906 202.894531 476.828125 203.132812 476.808594 203.375 L 457.804688 207.175781 C 457.558594 206.609375 457.207031 206.125 456.746094 205.714844 L 465.105469 190.972656 C 465.4375 191.089844 465.777344 191.171875 466.128906 191.21875 C 466.480469 191.265625 466.832031 191.273438 467.183594 191.246094 C 467.535156 191.21875 467.878906 191.15625 468.21875 191.054688 C 468.558594 190.953125 468.882812 190.820312 469.195312 190.652344 C 469.503906 190.484375 469.792969 190.285156 470.0625 190.054688 C 470.332031 189.824219 470.574219 189.570312 470.789062 189.289062 C 471.003906 189.011719 471.1875 188.710938 471.339844 188.390625 C 471.492188 188.074219 471.609375 187.742188 471.691406 187.398438 C 471.773438 187.054688 471.820312 186.707031 471.828125 186.351562 C 471.835938 186 471.808594 185.648438 471.746094 185.300781 C 471.679688 184.953125 471.578125 184.617188 471.445312 184.289062 C 471.308594 183.964844 471.140625 183.65625 470.941406 183.363281 C 470.742188 183.074219 470.511719 182.804688 470.257812 182.5625 C 470 182.320312 469.71875 182.105469 469.417969 181.921875 C 469.117188 181.738281 468.800781 181.585938 468.46875 181.46875 C 468.132812 181.351562 467.792969 181.269531 467.441406 181.222656 L 466.792969 166.636719 C 467.636719 166.449219 468.382812 166.070312 469.027344 165.496094 L 483.644531 177.242188 C 483.441406 177.609375 483.289062 177.996094 483.183594 178.398438 C 483.074219 178.804688 483.019531 179.214844 483.015625 179.632812 C 483.011719 180.050781 483.058594 180.460938 483.15625 180.867188 C 483.253906 181.273438 483.398438 181.664062 483.59375 182.03125 C 483.789062 182.402344 484.027344 182.742188 484.304688 183.054688 C 484.585938 183.367188 484.898438 183.636719 485.246094 183.871094 C 485.589844 184.105469 485.960938 184.292969 486.355469 184.433594 C 486.75 184.574219 487.152344 184.664062 487.570312 184.707031 C 487.984375 184.746094 488.398438 184.734375 488.8125 184.671875 C 489.226562 184.609375 489.625 184.5 490.011719 184.335938 C 490.398438 184.175781 490.757812 183.96875 491.089844 183.71875 C 491.425781 183.464844 491.722656 183.175781 491.984375 182.851562 C 492.25 182.527344 492.464844 182.175781 492.640625 181.792969 C 492.816406 181.414062 492.941406 181.019531 493.019531 180.609375 C 493.09375 180.195312 493.121094 179.78125 493.09375 179.367188 C 493.066406 178.949219 492.988281 178.542969 492.863281 178.144531 C 492.734375 177.746094 492.558594 177.367188 492.339844 177.015625 C 492.117188 176.660156 491.855469 176.335938 491.554688 176.046875 C 491.253906 175.757812 490.921875 175.511719 490.558594 175.304688 C 490.195312 175.097656 489.808594 174.9375 489.40625 174.824219 C 489.003906 174.714844 488.59375 174.652344 488.175781 174.644531 C 487.757812 174.632812 487.347656 174.675781 486.9375 174.769531 C 486.53125 174.859375 486.140625 175 485.769531 175.191406 C 485.394531 175.382812 485.050781 175.613281 484.738281 175.890625 L 470.144531 164.144531 C 470.316406 163.828125 470.453125 163.5 470.558594 163.15625 C 470.660156 162.808594 470.726562 162.457031 470.753906 162.097656 C 470.78125 161.742188 470.769531 161.382812 470.722656 161.027344 C 470.671875 160.667969 470.585938 160.324219 470.464844 159.984375 C 470.339844 159.644531 470.183594 159.324219 469.988281 159.019531 C 469.796875 158.714844 469.574219 158.4375 469.324219 158.179688 C 469.070312 157.921875 468.792969 157.695312 468.492188 157.496094 C 468.191406 157.300781 467.875 157.136719 467.539062 157.007812 C 467.203125 156.878906 466.855469 156.785156 466.5 156.730469 C 466.144531 156.675781 465.789062 156.660156 465.429688 156.679688 C 465.070312 156.703125 464.714844 156.761719 464.371094 156.859375 C 464.023438 156.957031 463.691406 157.089844 463.371094 157.257812 C 463.054688 157.425781 462.757812 157.625 462.480469 157.855469 C 462.207031 158.089844 461.960938 158.347656 461.738281 158.632812 C 461.519531 158.917969 461.332031 159.222656 461.175781 159.546875 C 461.023438 159.871094 460.902344 160.210938 460.820312 160.558594 L 444.207031 159.609375 C 444.136719 158.460938 443.8125 157.390625 443.242188 156.394531 L 450.785156 150.765625 C 451.078125 151.039062 451.398438 151.269531 451.75 151.460938 C 452.101562 151.648438 452.46875 151.792969 452.855469 151.890625 C 453.242188 151.988281 453.636719 152.035156 454.035156 152.035156 C 454.433594 152.035156 454.828125 151.984375 455.210938 151.886719 C 455.597656 151.785156 455.96875 151.640625 456.316406 151.449219 C 456.667969 151.253906 456.988281 151.023438 457.277344 150.75 C 457.570312 150.476562 457.824219 150.175781 458.039062 149.839844 C 458.253906 149.503906 458.421875 149.144531 458.546875 148.765625 L 480.039062 151.742188 C 480.066406 152.039062 480.132812 152.328125 480.234375 152.605469 C 480.335938 152.886719 480.46875 153.152344 480.632812 153.398438 C 480.796875 153.648438 480.988281 153.871094 481.207031 154.074219 C 481.429688 154.273438 481.667969 154.445312 481.929688 154.589844 C 482.191406 154.730469 482.464844 154.839844 482.753906 154.917969 C 483.042969 154.992188 483.335938 155.035156 483.632812 155.039062 C 483.929688 155.042969 484.222656 155.011719 484.515625 154.945312 C 484.804688 154.878906 485.082031 154.777344 485.347656 154.644531 C 485.613281 154.511719 485.859375 154.347656 486.085938 154.152344 C 486.3125 153.957031 486.511719 153.742188 486.683594 153.5 C 486.855469 153.257812 487 152.996094 487.109375 152.71875 C 487.21875 152.441406 487.292969 152.15625 487.332031 151.863281 C 487.375 151.566406 487.378906 151.269531 487.347656 150.976562 C 487.316406 150.679688 487.25 150.390625 487.148438 150.109375 C 487.046875 149.832031 486.914062 149.566406 486.746094 149.320312 C 486.582031 149.074219 486.386719 148.847656 486.167969 148.648438 C 485.949219 148.449219 485.707031 148.277344 485.445312 148.132812 C 485.183594 147.992188 484.910156 147.882812 484.621094 147.808594 C 484.332031 147.734375 484.039062 147.695312 483.742188 147.691406 C 483.445312 147.6875 483.148438 147.71875 482.859375 147.785156 C 482.570312 147.851562 482.292969 147.953125 482.027344 148.089844 C 481.761719 148.222656 481.515625 148.386719 481.289062 148.582031 C 481.066406 148.777344 480.867188 148.996094 480.695312 149.238281 C 480.523438 149.480469 480.382812 149.742188 480.273438 150.019531 L 458.785156 147.058594 C 458.757812 146.398438 458.59375 145.773438 458.304688 145.179688 L 468.832031 137.320312 C 469.0625 137.507812 469.308594 137.667969 469.578125 137.796875 C 469.847656 137.925781 470.125 138.019531 470.417969 138.082031 C 470.707031 138.140625 471.003906 138.167969 471.300781 138.15625 C 471.597656 138.144531 471.886719 138.097656 472.175781 138.019531 C 472.460938 137.9375 472.734375 137.820312 472.992188 137.675781 C 473.25 137.527344 473.484375 137.351562 473.699219 137.144531 C 473.917969 136.941406 474.105469 136.710938 474.261719 136.460938 C 474.421875 136.210938 474.550781 135.945312 474.644531 135.664062 C 474.742188 135.378906 474.800781 135.09375 474.828125 134.796875 C 474.851562 134.5 474.839844 134.203125 474.792969 133.910156 C 474.746094 133.617188 474.664062 133.332031 474.550781 133.058594 C 474.433594 132.785156 474.289062 132.527344 474.109375 132.289062 C 473.929688 132.050781 473.726562 131.839844 473.496094 131.648438 C 473.269531 131.460938 473.019531 131.304688 472.75 131.175781 C 472.480469 131.046875 472.203125 130.953125 471.910156 130.890625 C 471.621094 130.832031 471.324219 130.808594 471.027344 130.820312 C 470.730469 130.832031 470.441406 130.878906 470.152344 130.960938 C 469.867188 131.042969 469.597656 131.15625 469.339844 131.304688 C 469.082031 131.453125 468.84375 131.628906 468.628906 131.835938 C 468.414062 132.042969 468.226562 132.269531 468.070312 132.519531 C 467.910156 132.773438 467.78125 133.039062 467.6875 133.320312 C 467.59375 133.601562 467.535156 133.890625 467.507812 134.1875 C 467.484375 134.484375 467.496094 134.78125 467.542969 135.074219 C 467.589844 135.367188 467.671875 135.648438 467.789062 135.921875 L 457.257812 143.78125 C 457.03125 143.574219 456.789062 143.390625 456.53125 143.230469 C 456.269531 143.066406 455.996094 142.933594 455.710938 142.824219 C 455.425781 142.714844 455.128906 142.636719 454.828125 142.582031 C 454.527344 142.53125 454.222656 142.507812 453.917969 142.515625 C 453.609375 142.519531 453.308594 142.558594 453.007812 142.621094 C 452.710938 142.6875 452.421875 142.78125 452.140625 142.902344 C 451.859375 143.019531 451.589844 143.167969 451.335938 143.339844 C 451.085938 143.511719 450.851562 143.707031 450.632812 143.925781 L 438.671875 135.78125 C 438.773438 135.5 438.84375 135.214844 438.878906 134.917969 C 438.914062 134.625 438.914062 134.328125 438.875 134.035156 C 438.839844 133.738281 438.765625 133.453125 438.660156 133.175781 C 438.554688 132.894531 438.417969 132.636719 438.25 132.390625 C 438.078125 132.144531 437.882812 131.925781 437.660156 131.730469 C 437.4375 131.53125 437.195312 131.363281 436.933594 131.226562 C 436.667969 131.085938 436.390625 130.984375 436.105469 130.910156 C 435.816406 130.839844 435.523438 130.804688 435.226562 130.804688 Z M 502.148438 167.734375 C 506.167969 235.355469 427.746094 222.449219 426.4375 302.164062 C 436.910156 285.332031 448.066406 278.621094 459.914062 282.03125 C 476.921875 293.347656 487.589844 293.480469 491.917969 282.429688 C 491.246094 278 492.351562 274.941406 495.242188 273.261719 C 500.417969 272.875 502.378906 270.3125 501.128906 265.582031 C 505.523438 266.671875 507.960938 265.535156 508.4375 262.175781 C 506.726562 256.019531 509.929688 252.835938 518.042969 252.625 C 523.8125 252.140625 526.4375 250.042969 525.921875 246.328125 C 523.863281 236.046875 522.449219 228.757812 521.683594 224.464844 C 519.796875 217.902344 520.84375 211.640625 524.824219 205.679688 C 539.511719 172.734375 531.429688 144.066406 500.585938 119.679688 C 458.171875 90.945312 419.265625 96.027344 395.285156 123.230469 C 397.539062 121.246094 399.917969 119.429688 402.425781 117.777344 C 404.929688 116.125 407.539062 114.65625 410.253906 113.371094 C 412.964844 112.085938 415.753906 110.992188 418.617188 110.097656 C 421.480469 109.199219 424.394531 108.507812 427.355469 108.015625 C 430.316406 107.527344 433.300781 107.246094 436.300781 107.175781 C 439.300781 107.101562 442.292969 107.238281 445.273438 107.582031 C 448.257812 107.929688 451.199219 108.480469 454.105469 109.238281 C 457.007812 109.996094 459.847656 110.949219 462.617188 112.105469 C 465.386719 113.257812 468.066406 114.601562 470.648438 116.128906 C 473.230469 117.65625 475.695312 119.359375 478.042969 121.230469 C 480.386719 123.105469 482.59375 125.132812 484.65625 127.3125 C 486.714844 129.492188 488.617188 131.808594 490.355469 134.253906 C 492.09375 136.703125 493.652344 139.257812 495.035156 141.921875 C 496.417969 144.585938 497.605469 147.335938 498.601562 150.167969 C 499.601562 153 500.394531 155.886719 500.988281 158.828125 C 501.582031 161.769531 501.96875 164.738281 502.144531 167.738281 Z M 502.148438 167.734375 " fill-opacity="1" fill-rule="evenodd"/></g><g clip-path="url(#3ef254a838)"><g clip-path="url(#5270ea6c3c)"><path fill="#ffffff" d="M 376.476562 90.9375 L 539.527344 90.9375 L 539.527344 302.164062 L 376.476562 302.164062 Z M 376.476562 90.9375 " fill-opacity="1" fill-rule="nonzero"/></g></g></svg>